<?xml version="1.0" encoding="utf-8"?>
<!-- Generator: Adobe Illustrator 19.0.0, SVG Export Plug-In . SVG Version: 6.00 Build 0)  -->
<svg version="1.1" id="Layer_1" xmlns="http://www.w3.org/2000/svg" xmlns:xlink="http://www.w3.org/1999/xlink" x="0px" y="0px"
	 viewBox="0 0 500 500" style="enable-background:new 0 0 500 500;" xml:space="preserve">
<style type="text/css">
	.st0{fill:#127CC1;}
	.st1{enable-background:new    ;}
	.st2{font-family:'ArialMT';}
	.st3{font-size:16.6054px;}
</style>
<g id="XMLID_1_">
	<path id="path6" class="st0" d="M423.5,200c-16.5-80.3-171.9-85.4-272.1-24.2v6.8c100.1-51.7,242.1-51.3,255,22.7
		c4.4,24.5-9.4,50-33.9,64.7v19.2C402,278.2,432.2,243.1,423.5,200 M241.3,340.6C172.1,347,100.1,337,90,282.7
		c-5-26.7,7.2-55.1,23.3-72.7v-9.4c-29,25.5-44.8,57.8-35.7,96c11.6,48.9,73.4,76.6,167.8,67.4c37.4-3.6,86.3-15.7,120.2-34.4V303
		C334.8,321.4,283.8,336.7,241.3,340.6z"/>
	<path id="path8" class="st0" d="M360.1,188.4H342v81.1c0,9.5,4.5,17.8,18.1,19.1"/>
	<path id="path10" class="st0" d="M144.2,218H126v53c0,9.5,4.5,17.8,18.1,19.1"/>
	<rect id="rect12" x="126" y="190.8" class="st0" width="18.1" height="17.3"/>
	<path id="path14" class="st0" d="M252.8,289.3c-14.7,0-20.9-10.3-20.9-20.4v-70.3h17.9V218h13.6v14.6h-13.6v35.2
		c0,4.1,2,6.4,6.3,6.4h7.3v15H252.8"/>
	<path id="path16" class="st0" d="M300.5,231.7c-6.1,0-10.9,3.2-12.9,7.5c-1.2,2.6-1.6,4.6-1.8,7.8h27.8
		C313.2,239.2,309.7,231.7,300.5,231.7 M285.8,259.3c0,9.2,5.8,16,16,16c8,0,11.9-2.2,16.5-6.8l11.1,10.7
		c-7.1,7-14.6,11.3-27.8,11.3c-17.2,0-33.7-9.4-33.7-36.9c0-23.5,14.4-36.8,33.3-36.8c19.2,0,30.2,15.5,30.2,35.9v6.5L285.8,259.3"
		/>
	<path id="path18" class="st0" d="M193,232.6c5.3,0,7.4,2.6,7.4,6.8v49.9h18v-50c0-10.2-5.4-21.4-21.2-21.4h-37.1v71.3h17.9v-56.7"
		/>
	<g id="XMLID_7_" class="st1">
		<g id="XMLID_9_">
			<text id="XMLID_32_" transform="matrix(1.0217 0 0 1 370.3767 200.2324)" class="st0 st2 st3">®</text>
		</g>
	</g>
</g>
</svg>
